<?xml version="1.0" encoding="utf-8"?>
<!-- Generator: Adobe Illustrator 21.1.0, SVG Export Plug-In . SVG Version: 6.00 Build 0)  -->
<svg version="1.1" id="Layer_1" xmlns="http://www.w3.org/2000/svg" xmlns:xlink="http://www.w3.org/1999/xlink" x="0px" y="0px"
	 viewBox="0 0 1300 1390" style="enable-background:new 0 0 1300 1390;" xml:space="preserve">
<style type="text/css">
	.st0{fill:#F2BA32;}
	.st1{fill:#894909;}
	.st2{fill:#FFFFFF;}
	.st3{fill:#CE4A4A;}
	.st4{fill:#591214;}
	.st5{fill:#82C058;}
	.st6{fill:#A8D280;}
	.st7{fill:none;stroke:#A8D692;stroke-width:1.5;stroke-miterlimit:10;}
	.st8{fill:none;stroke:#3E793A;stroke-miterlimit:10;}
	.st9{fill:#BFCE74;}
	.st10{fill:#80BE5C;}
	.st11{fill:#3E793A;}
</style>
<path class="st0" d="M528.2,199.1c0,0,8.2-14.6,60.3-18l52.1-3.4l36,28.5l21.2,45.8l12.7,27.3l13.9,53.4L794,483l-37.3,65.8
	c0,0-17.9-2.3-28.6,7.2c0,0-3.9,3.3-6.1-5.9c0,0-3.7-19.9-18.5-26.6c0,0-12.8-2.4-30.2,28.5c0,0-20-23.1-39.7-24.4
	c0,0-15-2.2-21.3,12c0,0-5,9.4-5,22.9c0,0-11.2-2.9-24.6,3.2c0,0-13.1,2.7-17.3,18.6c0,0-3,9-0.7,19.3l3.4,15.3l-103.6-77.4
	L499,325.1L528.2,199.1z"/>
<path d="M407.8,1405.6"/>
<path class="st1" d="M500.4,326.3l-6.6,35.8c0,0-38-40.6-21-61.2C472.9,300.9,487.4,293.4,500.4,326.3z"/>
<path class="st1" d="M710.2,279.5l13.9,53.4c0,0,5.4-5.4,0.7-44.8C725,288,721.6,273.2,710.2,279.5z"/>
<path class="st1" d="M511.7,134.6c0,0,4.7,5.1,19.5-18.7c0,0,5.5-8.6,35.7-9l29.7-2.3c0,0,39.9-0.7,41.3-21.7c0,0,5-19.5,4.5-51
	c0,0-1.3-6.3,8.6,7.3c0,0,56.4,67.8,61.3,102.1c0,0-23.6,49.7-35.8,65.1l-36-28.5c0,0-78.6,1.8-102.6,14.3c0,0-7.1,3.8-9.6,7.1
	l-20.5,110.9c0,0-2.9,21.5-6.9,18.7c0,0-1.5,2.1-4.9-17.8l-14.5-71l-7.1-39.9c0,0-8.6-50,2.5-54.9C477,145,479.3,138.1,511.7,134.6z
	"/>
<path d="M969.1,1097.9l-3.5,50.5c0,0-2.2,15.5,9.6,43.1c0,0,11.4,37.9,20.4,43.2c0,0-140.1,88.5-303.1,104.2
	c0,0-225,39.2-449.8-109.1c0,0,9.4,1.4,3.7-33.5c0,0-6.8-11.5-6.1-45.4c0,0,106.5-87.7,77.6-239.1c0,0-53.9-242.3-56.4-262.4
	l188.6-111.5c0,0,9.6-13.1,14.2,3.7l60.2,106.2c0,0,113.7,189.2,184.9,237.9c0,0,77.4-243.7,84.8-350.6c0,0,5.2-26.5-0.4-51.9
	l23.1,8.5c0,0,52.2,17.7,113.8,13.8C930.6,505.3,986.9,854.2,969.1,1097.9z"/>
<ellipse transform="matrix(0.1799 -0.9837 0.9837 0.1799 -390.999 1518.5516)" class="st2" cx="715.2" cy="993.8" rx="14.8" ry="14.8"/>
<ellipse transform="matrix(0.1799 -0.9837 0.9837 0.1799 -588.8807 1630.3002)" class="st2" cx="683.3" cy="1168.3" rx="14.8" ry="14.8"/>
<path class="st3" d="M703.3,523.6c0,0,13.4,2.8,18.5,26.6c0,0,0.2,9,6.1,5.9c0,0,14.8-10.2,28.5-7.2c0,0,15,3.8-9.6,52.3l-19.1,38.4
	c0,0-16.9,31.9-26.7,44.2l-8,10.1c0,0-4.6,5.9-7.5,5.6c0,0-3.2,1.2-20.5-8.1l-26.3-15l-14.3-9.8l-19.2-12.9L583.1,636
	c0,0-20.1-13.6-18.6-32.4c0,0-4.6-25.9,11.5-34.9c0,0,18.6-9.5,31.2-6.2l1.5-14c0,0,2.3-21.6,25.3-20.9c0,0,18.6,1.3,39.2,24.3
	C673.2,552.2,690,521.4,703.3,523.6z"/>
<path class="st3" d="M549.5,687.7l96.3,97l45.3-71.1l47,36.1l34.8-93.3c0,0-42.2,173.4-63.6,229.1
	C709.4,885.6,634.8,833.9,549.5,687.7z"/>
<path class="st2" d="M464.2,541.5L567.8,619c0,0,40.3,51,117.8,80.6c0,0,23.2-16.5,69.1-115.3c0,0,13.5-27.6,1.8-35.5l37.3-65.9
	c0,0,8,7.8-0.7,63.6c0,0-10.9,72.8-20.1,109.9l-34.8,93.3l-47-36.1l-45.3,71.1l-96.3-97C549.5,687.7,508.6,622.7,464.2,541.5z"/>
<path d="M930.6,505.3"/>
<path d="M930.6,505.3"/>
<path d="M931.9,505.3c0,0,245.7,86.7,226.7,284.5c0,0-34.9,120-168,181.4c0,0-28.4,21-11.1,47.9h26.1l-33.8,27.4l-8.2-18.1v-86.2
	c0,0,87.2-60.6,74.5-137.6c0,0-5.7-80.2-75-62.2S931.9,505.3,931.9,505.3z"/>
<path d="M272,642.9c0,0-170.4,105.2-126.4,266.4c0,0,36.3,92.1,145,124.8c0,0,7.1-0.9-1.9,23.7l-32.9,18.1l35.9,12.8l8.3-20.7
	l26-59.3c0,0-86.2-38.2-88.3-103.7c0,0,7.2-74.1,61.6-68.6S272,642.9,272,642.9z"/>
<path class="st1" d="M575.6,332.5l8.3-7.4c0,0,7-5.2,8.6-1.1c0,0,4.9,10.4-15.5,19.5c0,0-17.6,6.8-37.5,7.2
	C539.5,350.7,573.2,338.4,575.6,332.5z"/>
<path class="st1" d="M641.4,324.4l-9.8-5.1c0,0-8.1-3.3-8.6,1.1c0,0-2.2,11.2,19.8,15.2c0,0,18.7,2.3,38.1-2.1
	C680.8,333.4,645.1,329.6,641.4,324.4z"/>
<polygon points="533.9,369.1 598.9,375 511.3,404.9 567.7,378.9 "/>
<polygon points="695.4,349.3 633.7,370.8 725.9,378.6 664.9,366.9 "/>
<path class="st4" d="M533.1,470.3c0,0,19.9-37.3,98.3-46.9c0,0,80.7,1.5,94.5,23.5C725.9,446.8,648.5,538.4,533.1,470.3z"/>
<path class="st5" d="M565.4,442.7c0,0-22.3,15.1-6.6,39.1c0,0,15.8,10.2,7.5,24.8c0,0-20.5,21.7,8.2,27.3c0,0,13.5,0.5,18.5-11.8
	c0,0,19.8-16.7,25,11.8c0,0,8.7,15.1,22.6,15.1c0,0,22.4-6.7,20.3-19.2c0,0-10.8-8.6-4.7-16.3s18.3,0,18.3,0v8.5
	c0,0,17.4,14.3,27.8,0c0,0,4.4-15.4,0-25.4c0,0,7-11.4,16.1-5.4c0,0,12.4-9.6,8.9-19.2c0,0-2.7-21.7-20.1-18.8c0,0-19.3-4.4-10-21.7
	C697.3,431.5,621.6,405.1,565.4,442.7z"/>
<path class="st6" d="M563.1,443.9c0,0,15.8,9,15.9,15.7c0.2,6.7,1.6,30.7,22.5,22.3c0,0,6-4.4,4.9-9.9s5.1-18.3,15-13.8
	s8.2,20.8,8.2,20.8s-4.3,27.7,16.2,20.6c0,0,12.1-7.3,8.1-23.1c-4.1-15.7,5.4-15.6,5.4-15.6s12-3.8,18,16.3c0,0,14.1,16.7,21.6-2.2
	c0,0-3.4-18.9-21.5-16.5c0,0-9.7-7.9,17-7.8c0,0,20.4,0.7,9.1-17.8C703.6,433,653.9,409,563.1,443.9z"/>
<path class="st6" d="M563.1,443.9c0,0,23.8-16.9,54.9-20.4c0,0,42.3-5.4,85.6,9.6l-101-0.5l-28.9,9.6L563.1,443.9z"/>
<path class="st7" d="M561.1,520.7c0,0,4.4,11.7,18.7,9.5c0,0,8.4-2.2,11-9.5c0,0,13.4-17.6,24.7-2.8c0,0,4.4,11.5,4,13.2
	c0,0,9.9,15.5,21.1,15.5c0,0,15.7-6.5,16.5-16.1c0,0-11.6-11-1.7-19.8c0,0,5.7-7.3,20.1,0l1.2,1.1v8.9c0,0,12.3,10.9,23.2-0.4
	c0,0,3.9-10.6,0.3-22.2l-1.3-2.1c0,0,2.9-7.7,14.2-9.3c0,0,2.9,0.1,4.7,1.4"/>
<path class="st8" d="M559.3,523.5c0,0,0.7,8.1,15.1,10.3c0,0,12.1,1.6,18.5-11.8c0,0,19-17.3,25,11.8c0,0,6.8,14.4,22.6,15.1
	c0,0,21.6-5.8,20.3-19.2c0,0-14.9-13.4,0-19.4c0,0,6.3-2.2,13.6,3.1v8.5c0,0,8.9,8.1,19.8,5.8c0,0,5.9-2.2,8.1-5.8
	c0,0,4.5-18.8,0-25.4c0,0,7.5-11.8,16.1-5.4c0,0,12.7-8.9,9.2-19.2"/>
<ellipse class="st9" cx="651.8" cy="470.8" rx="16.1" ry="7.9"/>
<ellipse class="st9" cx="670.3" cy="434.4" rx="11.8" ry="6.3"/>
<ellipse class="st9" cx="581.1" cy="458.1" rx="11.8" ry="6.3"/>
<ellipse class="st9" cx="607.8" cy="503.6" rx="8.8" ry="5"/>
<path class="st10" d="M709.3,495.4c0,0,6.2,21.1,26.6,17c0,0,7.8-3.5,0-12.3C735.9,500.1,720.6,493.9,709.3,495.4z"/>
<path class="st8" d="M735.9,500.1c0,0,7.5,7.8,0,12.3c0,0-17.7,6.5-26.6-17"/>
<path class="st7" d="M731.8,498.6c0,0,9.5,10.8,2.7,11.8"/>
<path class="st11" d="M559.8,523.4c0,0-0.4-0.8-0.6-4.1c0,0-0.8,2-0.4,4.2L559.8,523.4z"/>
<path class="st11" d="M727.5,474.4c0,0,0.2-0.9-0.4-4.1c0,0,1.4,1.7,1.5,3.9L727.5,474.4z"/>
</svg>
