<svg id="Layer_1" data-name="Layer 1" xmlns="http://www.w3.org/2000/svg" viewBox="0 0 1243.56 1313.15"><defs><style>.cls-1{fill:#f4d88c;}.cls-2{fill:#ce6f06;}.cls-3{fill:#894909;}.cls-4{fill:#424141;}.cls-5{fill:#842323;}.cls-6{fill:#fff;}.cls-7{fill:#ce4a4a;}</style></defs><title>assistant--eyebrowUpAndDown</title><path class="cls-1" d="M756.5,548.9s-15.4-2.3-28.5,7.2c0,0-3.1,4-6.1-5.9,0,0-2.1-18.2-18.5-26.6,0,0-13-2.4-30.2,28.5,0,0-31.2-35.5-53.6-21,0,0-10.9,3.7-12.5,31.5,0,0-14.2-3-31.2,6.2,0,0-15.2,7.2-11.5,34.9l3.4,15.3L464.2,541.6l28.4-182.1,6.3-34.3s3.6,8.4,6-2l23.2-124.1" transform="translate(-7.1 -30.44)"/><path class="cls-1" d="M528,199.2s8.2-11,37.1-14.8c0,0,49.5-7.8,75.3-6.6l36,28.5,33.9,73.1,13.9,53.4,69.6,150.3-37.3,65.8" transform="translate(-7.1 -30.44)"/><path d="M407.8,1405.6" transform="translate(-7.1 -30.44)"/><path class="cls-2" d="M498.9,325.2l-6.3,34.3s-36.2-38.9-20-58.6C472.7,300.9,486.5,293.7,498.9,325.2Z" transform="translate(-7.1 -30.44)"/><path class="cls-2" d="M710.2,279.5l13.9,53.4s5.4-5.4.7-44.8C725,288,721.6,273.2,710.2,279.5Z" transform="translate(-7.1 -30.44)"/><path class="cls-3" d="M511.7,134.6s4.7,5.1,19.5-18.7c0,0,5.5-8.6,35.7-9l29.7-2.3s39.9-.7,41.3-21.7c0,0,5-19.5,4.5-51,0,0-1.3-6.3,8.6,7.3,0,0,56.4,67.8,61.3,102.1,0,0-23.6,49.7-35.8,65.1l-36-28.5s-78.6,1.8-102.6,14.3c0,0-7.1,3.8-9.6,7.1L507.8,310.2s-2.9,21.5-6.9,18.7c0,0-1.5,2.1-4.9-17.8l-14.5-71-7.1-39.9s-8.6-50,2.5-54.9C477,145,479.3,138.1,511.7,134.6Z" transform="translate(-7.1 -30.44)"/><path class="cls-3" d="M579.9,234.6s6.9-3.8,8.6,3l1.5,4.7h0l-13,4.6s-25.6,8.9-26.9,4.3C550.1,251,548.9,249.3,579.9,234.6Z" transform="translate(-7.1 -30.44)"/><path class="cls-3" d="M627.1,206.9s-.9-3.9,3.3-3.3a203.28,203.28,0,0,0,30.4,12s11.2,5.7,8.5,12.1c0,0-7.6-8.1-40.6-11.2Z" transform="translate(-7.1 -30.44)"/><circle cx="575.46" cy="267.55" r="11.9" transform="matrix(0.18, -0.98, 0.98, 0.18, 201.66, 755.05)"/><circle cx="657.42" cy="264.69" r="11.9" transform="translate(271.68 833.32) rotate(-79.64)"/><polygon class="cls-2" points="614.7 220.96 604.8 223.26 601.2 309.46 635.6 303.16 614.7 220.96"/><path class="cls-4" d="M620.9,359.2s-41.2,5.2-83.5,18.4l-1.3,9.6s3.4,82.7,22.6,92.9l4.7.4s75.4-1,118.7-11.6c0,0,20.9-3.5,23.3-10,0,0,6.9-26.1-4.6-77.4,0,0-1.1-5.6-40.5-13.9Z" transform="translate(-7.1 -30.44)"/><path class="cls-1" d="M545.8,387.9l6.5-1.5,8.3.1s39.8,2.4,64.5-14.7c0,0,59.6,10.7,67.2,14.6,0,0,6.1,45.6,2.2,60.1l-7.9-1.1s-106.7,10.1-129.9,14C556.6,459.4,537.5,412.5,545.8,387.9Z" transform="translate(-7.1 -30.44)"/><path class="cls-5" d="M584.3,417.4s-10.2-3,11.3-2.9l11,.4,15.9.7,23,1,7.6.3,6.2.1h3.1s6.4-.2,8.9,1.3c0,0,4.9,2.6-4.7,3.3l-7,.4-5.6.2s-7.3.3-12.2.3h-4.3l-5.2.2-4.3.1-10.9.1a84.86,84.86,0,0,1-15.9-1.3C593.2,419.9,588,418.7,584.3,417.4Z" transform="translate(-7.1 -30.44)"/><path d="M969.1,1097.9l-3.5,50.5s-2.2,15.5,9.6,43.1c0,0,11.4,37.9,20.4,43.2,0,0-140.1,88.5-303.1,104.2,0,0-225,39.2-449.8-109.1,0,0,9.4,1.4,3.7-33.5,0,0-6.8-11.5-6.1-45.4,0,0,106.5-87.7,77.6-239.1,0,0-53.9-242.3-56.4-262.4L450.1,537.9s9.6-13.1,14.2,3.7l60.2,106.2S638.2,837,709.4,885.7c0,0,77.4-243.7,84.8-350.6,0,0,5.2-26.5-.4-51.9l23.1,8.5s52.2,17.7,113.8,13.8C930.6,505.3,986.9,854.2,969.1,1097.9Z" transform="translate(-7.1 -30.44)"/><circle class="cls-6" cx="715.18" cy="993.81" r="14.8" transform="translate(-398.17 1488.1) rotate(-79.64)"/><circle class="cls-6" cx="683.25" cy="1168.37" r="14.8" transform="translate(-596.07 1599.85) rotate(-79.64)"/><path class="cls-7" d="M703.3,523.6s13.4,2.8,18.5,26.6c0,0,.2,9,6.1,5.9,0,0,14.8-10.2,28.5-7.2,0,0,15,3.8-9.6,52.3l-19.1,38.4s-16.9,31.9-26.7,44.2l-8,10.1s-4.6,5.9-7.5,5.6c0,0-3.2,1.2-20.5-8.1l-26.3-15-14.3-9.8-19.2-12.9L583.1,636s-20.1-13.6-18.6-32.4c0,0-4.6-25.9,11.5-34.9,0,0,18.6-9.5,31.2-6.2l1.5-14s2.3-21.6,25.3-20.9c0,0,18.6,1.3,39.2,24.3C673.2,552.2,690,521.4,703.3,523.6Z" transform="translate(-7.1 -30.44)"/><path class="cls-7" d="M549.5,687.7l96.3,97,45.3-71.1,47,36.1,34.8-93.3s-42.2,173.4-63.6,229.1C709.4,885.6,634.8,833.9,549.5,687.7Z" transform="translate(-7.1 -30.44)"/><path class="cls-6" d="M464.2,541.5,567.8,619s40.3,51,117.8,80.6c0,0,23.2-16.5,69.1-115.3,0,0,13.5-27.6,1.8-35.5l37.3-65.9s8,7.8-.7,63.6c0,0-10.9,72.8-20.1,109.9l-34.8,93.3-47-36.1-45.3,71.1-96.3-97C549.5,687.7,508.6,622.7,464.2,541.5Z" transform="translate(-7.1 -30.44)"/><path d="M930.6,505.3" transform="translate(-7.1 -30.44)"/><path class="cls-5" d="M580.5,399.4s10,19.7-11.9,29.6C568.6,429,596.8,423.9,580.5,399.4Z" transform="translate(-7.1 -30.44)"/><path d="M930.6,505.3s46,239.1,147.8,209.7c0,0,77.1-10.6,84.9-70.6l36.5,12.1s-23.5,150.6-86.2,178c0,0-54.2,33.4-147.6-11.7Z" transform="translate(-7.1 -30.44)"/><path class="cls-1" d="M1165.6,640.5l58,19.4h21.8s7.3-3.8,4.7-11.9c0,0-46.1-20.6-71-16.8Z" transform="translate(-7.1 -30.44)"/><path d="M261.7,648.3s34.7,235.8-71,242.7c0,0-76.1,15.9-103.1-36.8L57.1,877.5s71.3,131,139.3,135.4c0,0,62,12.7,135.3-60Z" transform="translate(-7.1 -30.44)"/><path class="cls-1" d="M84.3,851.4,35.9,888.6l-20.5,7.3s-8.1-1.1-8.3-9.4c0,0,36.8-34.4,61.4-39.2Z" transform="translate(-7.1 -30.44)"/><path class="cls-1" d="M1265.4,680.5" transform="translate(-7.1 -30.44)"/></svg>