<?xml version="1.0" encoding="utf-8"?>
<!-- Generator: Adobe Illustrator 21.1.0, SVG Export Plug-In . SVG Version: 6.00 Build 0)  -->
<svg version="1.1" id="Layer_1" xmlns="http://www.w3.org/2000/svg" xmlns:xlink="http://www.w3.org/1999/xlink" x="0px" y="0px"
	 viewBox="0 0 1300 1390" style="enable-background:new 0 0 1300 1390;" xml:space="preserve">
<style type="text/css">
	.st0{fill:#F4D88C;}
	.st1{fill:#CE6F06;}
	.st2{fill:#894909;}
	.st3{fill:#424141;}
	.st4{fill:#842323;}
	.st5{fill:#FFFFFF;}
	.st6{fill:#CE4A4A;}
</style>
<path class="st0" d="M729.4,519.8c0,0-15.6,0.5-26.7,12.2c0,0-2.3,4.5-7.1-4.7c0,0-5.3-17.5-23-22.8c0,0-13.2,0-24.6,33.5
	c0,0-37.1-29.3-56.5-11c0,0-10.1,5.6-6.6,33.2c0,0-14.5-0.4-29.6,11.7c0,0-13.7,9.8-5,36.4l6.1,14.4l-115.8-57.5L435.8,381v-34.9
	c0,0,5.1,7.6,5.5-3l0.5-126.2"/>
<path class="st0" d="M441.7,216.9c0,0,6.1-12.3,33.8-21.2c0,0,47.3-16.6,72.9-20l40.5,21.6l46.5,65.8l23.3,50l95.5,135.3l-24.9,71.4
	"/>
<path d="M407.8,1405.6"/>
<path class="st1" d="M435.8,346.1V381c0,0-42.6-31.8-30.2-54C405.6,326.9,417.9,317.4,435.8,346.1z"/>
<path class="st1" d="M635.4,263.1l23.3,50c0,0,4.3-6.3-7.4-44.2C651.5,268.8,645.5,254.9,635.4,263.1z"/>
<path class="st2" d="M414.1,156.3c0,0,5.5,4.2,15.8-21.9c0,0,3.9-9.5,33.5-15.3l28.8-7.6c0,0,39.1-7.9,36.7-28.8
	c0,0,1.4-20.1-4.8-51c0,0-2.4-6,9.8,5.6c0,0,67.7,56.5,78.7,89.4c0,0-14.3,53.1-23.5,70.5l-40.5-21.6c0,0-77,15.9-98.4,32.5
	c0,0-6.3,5-8.2,8.7l-0.2,112.8c0,0,1,21.7-3.4,19.6c0,0-1.1,2.3-8-16.6l-27-67.2l-14.2-38c0,0-17.4-47.6-7.4-54.5
	C381.8,172.8,382.9,165.6,414.1,156.3z"/>
<path class="st2" d="M497.4,221.1c0,0,6.6-5.8,8.8,3.1l1.9,6.1c0,0,1.6,4.7-2.9,6.8l-26.9,10.8c0,0-7.7,4.3-9.3-1.6
	C468.9,246,467.6,243.9,497.4,221.1z"/>
<path class="st2" d="M545.3,213c0,0-1.6-4,2.6-4.2c0,0,13.4-1.8,32.2,0.8c0,0,9.3,0.2,7.9,7.7c0,0-6.8,2.6-39.4,5.8L545.3,213z"/>
<circle cx="500.8" cy="275.6" r="11.9"/>
<circle cx="580.9" cy="258.1" r="11.9"/>
<polygon class="st1" points="543.4,251.4 534.1,255.4 546.1,340.9 578.8,328.5 "/>
<path class="st3" d="M561.9,357.6c0,0-39.6,12.5-78.8,33.1l0.5,9.7c0,0,18.2,80.7,38.9,87.3l4.7-0.5c0,0,74-14.6,114.7-32.8
	c0,0,19.9-7.2,21.1-14c0,0,2.1-26.9-18.5-75.3c0,0-2.1-5.3-42.3-6.4L561.9,357.6z"/>
<path class="st0" d="M493.2,399.3l6.1-2.6l8.2-1.4c0,0,39.6-4.8,60.8-26.1c0,0,60.6-0.2,68.7,2.3c0,0,14.2,43.8,13,58.7l-8,0.3
	c0,0-103.1,29.1-125.3,37.2C516.7,467.7,489.5,425,493.2,399.3z"/>
<path class="st4" d="M512.8,426.5c0,0-12.9-12.5,13.7-21.1l13.7-2.4l19.8-2.7l28.6-4l9.5-1.8l7.7-1.9l3.9-1.3c0,0,7.9-3.9,11.1,3.4
	c0,0,6.3,12.5-5.5,20.1l-8.7,5.3l-6.9,3.7c0,0-9,4.8-15.1,6.8l-5.3,1.8l-6.4,3.2l-5.3,2.6l-13.5,5.3c0,0-10.1,4.8-19.9-0.8
	C524.1,436.8,517.5,432.1,512.8,426.5z"/>
<path d="M783.7,270l167,73.3c0,0,63.4,26.2,71.7,36.5c0,0,12.4,55.7-28.6,204.1c0,0-12.1,51.5-26.2,76.9c0,0-6.9,13.5-2.4,20.9
	c0,0,45.8,97,72.2,339.9l5.6,50.3c0,0,0.6,15.6,17.2,40.7c0,0,18,35.2,27.8,38.8c0,0-121.9,112.3-279.4,157
	c0,0-214.3,79.1-462.1-26.4c0,0,9.5-0.3-2.4-33.6c0,0-8.8-10.1-14.2-43.6c0,0,89-105.4,33.3-249.2l-45,41.2l-26.5,16.9l-25.9,18.5
	l-75.1,41l-50.2,25.1l-46.3,21.6l-17.1-31.5c0,0,86.2-36,130.8-153.3l32.2-95.4c0,0,26.5-112.8,20.4-132.1L426,564
	c0,0,7.1-14.6,14.6,1.1l78.3,93.6c0,0,145.9,165.7,224.7,200.7c0,0,32.3-253.7,20.3-360.1c0,0,0.3-27-9.7-51l24.3,4.2
	c0,0,54.5,8,114.4-6.9c0,0,40.9-37.9-124-158.8C768.9,286.8,770.5,264.9,783.7,270z"/>
<circle class="st5" cx="768.9" cy="964.9" r="14.8"/>
<circle class="st5" cx="768.9" cy="1142.4" r="14.8"/>
<path class="st6" d="M672.6,504.5c0,0,13.7,0.3,23,22.8c0,0,1.8,8.8,7.1,4.7c0,0,12.7-12.7,26.7-12.2c0,0,15.4,1,0,53.2l-11.9,41.2
	c0,0-10.9,34.4-18.3,48.3l-6,11.4c0,0-3.5,6.6-6.4,6.9c0,0-2.9,1.8-21.6-4.3l-28.6-10l-15.8-7.1l-21.2-9.2l-25.1-13.5
	c0,0-22.2-9.8-24.1-28.5c0,0-9.2-24.6,5-36.4c0,0,16.6-12.7,29.6-11.7l-1-14c0,0-1.6-21.7,21.1-25.1c0,0,18.5-2.1,42.9,16.9
	C648.1,538,659.1,504.7,672.6,504.5z"/>
<path class="st6" d="M534.1,442.6c0,0,2.9-27.8,33.5-4.5l-13.5,5.3C554,443.4,546.7,447.1,534.1,442.6z"/>
<path class="st6" d="M550.8,693.6L663,771.7l31.8-78.1l52.7,27.1l17.5-98c0,0-10.3,178.2-21.3,236.8
	C743.7,859.5,661,822,550.8,693.6z"/>
<path class="st5" d="M440.6,565.1l115.8,57.6c0,0,48.8,42.9,130.4,58.1c0,0,19.9-20.4,47.2-125.8c0,0,8.3-29.6-4.6-35.2l24.8-71.5
	c0,0,9.3,6.2,10.8,62.7c0,0,2.4,73.6,0,111.7l-17.5,98l-52.7-27.1L663,771.7l-112.2-78.1C550.8,693.6,498.9,637,440.6,565.1z"/>
</svg>
