<?xml version="1.0" encoding="utf-8"?>
<!-- Generator: Adobe Illustrator 21.1.0, SVG Export Plug-In . SVG Version: 6.00 Build 0)  -->
<svg version="1.1" id="Layer_1" xmlns="http://www.w3.org/2000/svg" xmlns:xlink="http://www.w3.org/1999/xlink" x="0px" y="0px"
	 viewBox="0 0 1300 1390" style="enable-background:new 0 0 1300 1390;" xml:space="preserve">
<style type="text/css">
	.st0{fill:#E58842;}
	.st1{fill:#894909;}
	.st2{fill:#424141;}
	.st3{fill:#FFFFFF;}
	.st4{fill:#CE4A4A;}
	.st5{fill:#842323;}
	.st6{fill:#3E793A;}
</style>
<g>
	<path class="st0" d="M757,550.6c0,0-15.4-2.3-28.5,7.2c0,0-3.1,4-6.1-5.9c0,0-2.1-18.2-18.5-26.6c0,0-13-2.4-30.2,28.5
		c0,0-31.2-35.5-53.6-21c0,0-10.9,3.7-12.5,31.5c0,0-14.2-3-31.2,6.2c0,0-15.2,7.2-11.5,34.9l3.4,15.3l-103.6-77.4l28.4-182.1
		l6.3-34.3c0,0,3.6,8.4,6-2l23.2-124.1"/>
	<path class="st0" d="M527.6,201.3c0,0,8.2-11,37.1-14.8c0,0,49.5-7.8,75.3-6.6l36,28.5l33.9,73.1l13.9,53.4l69.6,150.3L756.1,551"
		/>
</g>
<path d="M407.8,1405.6"/>
<path class="st1" d="M499.9,325.2l-6.3,34.3c0,0-36.2-38.9-20-58.6C473.7,300.9,487.5,293.7,499.9,325.2z"/>
<path class="st1" d="M709.2,279.5l13.9,53.4c0,0,5.4-5.4,0.7-44.8C724,288,720.6,273.2,709.2,279.5z"/>
<path class="st1" d="M511.7,136.6c0,0,4.7,5.1,19.5-18.7c0,0,5.5-8.6,35.7-9l29.7-2.3c0,0,39.9-0.7,41.3-21.7c0,0,5-19.5,4.5-51
	c0,0-1.3-6.3,8.6,7.3c0,0,56.4,67.8,61.3,102.1c0,0-23.6,49.7-35.8,65.1l-36-28.5c0,0-78.6,1.8-102.6,14.3c0,0-7.1,3.8-9.6,7.1
	l-20.5,110.9c0,0-2.9,21.5-6.9,18.7c0,0-1.5,2.1-4.9-17.8l-14.5-71l-7.1-39.9c0,0-8.6-50,2.5-54.9C477,147,479.3,140.1,511.7,136.6z
	"/>
<polygon class="st1" points="616.7,345.7 607,347.3 605.9,419.7 640,415.4 "/>
<path class="st2" d="M626.4,429.1c0,0-30.5,6.5-61.3,19l-0.3,7.3c0,0,7.8,61.7,22.7,68.1h3.6c0,0,56.5-5.6,88.2-16.2
	c0,0,15.4-3.9,16.8-8.9c0,0,3.6-20-8.3-57.6c0,0-1.2-4.2-31.1-7.9L626.4,429.1z"/>
<path class="st0" d="M580.5,459.6l4.1-1.4l5.4-0.6c0,0,25.9-1.5,40.5-14.5c0,0,39.3,2.3,44.4,4.3c0,0,7.4,29,6.1,38.6l-5.2-0.1
	c0,0-68,14.7-82.7,19.1C593,504.9,577.1,476.1,580.5,459.6z"/>
<path d="M969.1,1097.9l-3.5,50.5c0,0-2.2,15.5,9.6,43.1c0,0,11.4,37.9,20.4,43.2c0,0-140.1,88.5-303.1,104.2
	c0,0-225,39.2-449.8-109.1c0,0,9.4,1.4,3.7-33.5c0,0-6.8-11.5-6.1-45.4c0,0,106.5-87.7,77.6-239.1c0,0-53.9-242.3-56.4-262.4
	l188.6-111.5c0,0,9.6-13.1,14.2,3.7l60.2,106.2c0,0,113.7,189.2,184.9,237.9c0,0,77.4-243.7,84.8-350.6c0,0,5.2-26.5-0.4-51.9
	l23.1,8.5c0,0,52.2,17.7,113.8,13.8C930.6,505.3,986.9,854.2,969.1,1097.9z"/>
<ellipse transform="matrix(0.1799 -0.9837 0.9837 0.1799 -391.0394 1518.5284)" class="st3" cx="715.2" cy="993.8" rx="14.8" ry="14.8"/>
<ellipse transform="matrix(0.1799 -0.9837 0.9837 0.1799 -588.8778 1630.3063)" class="st3" cx="683.3" cy="1168.3" rx="14.8" ry="14.8"/>
<path class="st4" d="M703.3,523.6c0,0,13.4,2.8,18.5,26.6c0,0,0.2,9,6.1,5.9c0,0,14.8-10.2,28.5-7.2c0,0,15,3.8-9.6,52.3l-19.1,38.4
	c0,0-16.9,31.9-26.7,44.2l-8,10.1c0,0-4.6,5.9-7.5,5.6c0,0-3.2,1.2-20.5-8.1l-26.3-15l-14.3-9.8l-19.2-12.9L583.1,636
	c0,0-20.1-13.6-18.6-32.4c0,0-4.6-25.9,11.5-34.9c0,0,18.6-9.5,31.2-6.2l1.5-14c0,0,2.3-21.6,25.3-20.9c0,0,18.6,1.3,39.2,24.3
	C673.2,552.2,690,521.4,703.3,523.6z"/>
<path class="st4" d="M549.5,687.7l96.3,97l45.3-71.1l47,36.1l34.8-93.3c0,0-42.2,173.4-63.6,229.1
	C709.4,885.6,634.8,833.9,549.5,687.7z"/>
<path class="st3" d="M464.2,541.5L567.8,619c0,0,40.3,51,117.8,80.6c0,0,23.2-16.5,69.1-115.3c0,0,13.5-27.6,1.8-35.5l37.3-65.9
	c0,0,8,7.8-0.7,63.6c0,0-10.9,72.8-20.1,109.9l-34.8,93.3l-47-36.1l-45.3,71.1l-96.3-97C549.5,687.7,508.6,622.7,464.2,541.5z"/>
<path d="M930.6,505.3"/>
<path d="M930.6,505.3"/>
<path class="st5" d="M603.6,495c0,0,3.5-34.7,27-37.9c0,0,29.3-0.3,35.2,23.5C665.7,480.6,634.9,451.8,603.6,495z"/>
<path d="M931.9,505.3c0,0,245.7,86.7,226.7,284.5c0,0-34.9,120-168,181.4c0,0-28.4,21-11.1,47.9h26.1l-33.8,27.4l-8.2-18.1v-86.2
	c0,0,87.2-60.6,74.5-137.6c0,0-5.7-80.2-75-62.2S931.9,505.3,931.9,505.3z"/>
<path d="M272,642.9c0,0-170.4,105.2-126.4,266.4c0,0,36.3,92.1,145,124.8c0,0,7.1-0.9-1.9,23.7l-32.9,18.1l35.9,12.8l8.3-20.7
	l26-59.3c0,0-86.2-38.2-88.3-103.7c0,0,7.2-74.1,61.6-68.6S272,642.9,272,642.9z"/>
<path class="st6" d="M559.8,523.4c0,0-0.4-0.8-0.6-4.1c0,0-0.8,2-0.4,4.2L559.8,523.4z"/>
<ellipse transform="matrix(0.9795 -0.2015 0.2015 0.9795 -61.1674 122.2826)" cx="570.1" cy="361.6" rx="17.1" ry="26.9"/>
<ellipse transform="matrix(0.9795 -0.2015 0.2015 0.9795 -57.0628 139.7887)" cx="658.2" cy="350.2" rx="17.1" ry="26.9"/>
<path d="M637.8,341.3c0,0,11.4-24.4,55.9-35.9c0,0,0.9-3.6-0.4-6.6c0,0-21.6-0.9-35.9,10.9C657.4,309.7,642,322.5,637.8,341.3z"/>
<path d="M693.3,298.8c0,0,6.6,1.7,0.4,6.6L693.3,298.8z"/>
<path d="M589.3,350.1c0,0-16.5-21.3-62.5-22.6c0,0-1.7-3.3-1.1-6.5c0,0,20.9-5.6,37.4,2.6C563.2,323.5,581.1,332.7,589.3,350.1z"/>
<path d="M526.6,320.8c0,0-7.8,2.6,0.2,6.8L526.6,320.8z"/>
<ellipse transform="matrix(0.988 -0.1544 0.1544 0.988 -56.0929 99.3565)" class="st0" cx="611.5" cy="410.7" rx="5.1" ry="5.1"/>
<path class="st0" d="M606,412.8c0,0,2.1,6.5,6.7,6l-2.7,5.9l-5-1.8l-0.5-3.8L606,412.8z"/>
<path class="st0" d="M637.7,408.6c0,0,1.5,5.9-3.5,7.5l3.7,4.7l10.2-3.4l-4-8.3l-6.2-2.6L637.7,408.6z"/>
<path class="st1" d="M606.1,403.8c0,0-2.5,2.7-2.3,7.5c0,0,0.2,7.9,8.8,7.5l4.7-0.6l-4.3-2.6c0,0-5.8,0.6-6.8-5c0,0-0.8-5.4,5-6.8
	L606.1,403.8z"/>
<path class="st1" d="M635,400.2c0,0,3,2.2,3.8,7.1c0,0,1.4,8-7.1,9.3l-4.7,0.4l3.6-3.4c0,0,5.8-0.6,5.7-6.4c0,0-0.4-5.5-6.3-5.8
	L635,400.2z"/>
<ellipse transform="matrix(0.988 -0.1544 0.1544 0.988 -55.4983 102.4225)" class="st0" cx="631.5" cy="408.4" rx="5.2" ry="5.2"/>
</svg>
