<?xml version="1.0" encoding="utf-8"?>
<!-- Generator: Adobe Illustrator 21.1.0, SVG Export Plug-In . SVG Version: 6.00 Build 0)  -->
<svg version="1.1" id="Layer_1" xmlns="http://www.w3.org/2000/svg" xmlns:xlink="http://www.w3.org/1999/xlink" x="0px" y="0px"
	 viewBox="0 0 1300 1390" style="enable-background:new 0 0 1300 1390;" xml:space="preserve">
<style type="text/css">
	.st0{fill:#F4D88C;}
	.st1{fill:#CE6F06;}
	.st2{fill:#894909;}
	.st3{fill:#424141;}
	.st4{fill:#842323;}
	.st5{fill:#FFFFFF;}
	.st6{fill:#CE4A4A;}
</style>
<path class="st0" d="M756.5,548.9c0,0-15.4-2.3-28.5,7.2c0,0-3.1,4-6.1-5.9c0,0-2.1-18.2-18.5-26.6c0,0-13-2.4-30.2,28.5
	c0,0-31.2-35.5-53.6-21c0,0-10.9,3.7-12.5,31.5c0,0-14.2-3-31.2,6.2c0,0-15.2,7.2-11.5,34.9l3.4,15.3l-103.6-77.4l28.4-182.1
	l6.3-34.3c0,0,3.6,8.4,6-2l23.2-124.1"/>
<path class="st0" d="M528,199.2c0,0,8.2-11,37.1-14.8c0,0,49.5-7.8,75.3-6.6l36,28.5l33.9,73.1l13.9,53.4l69.6,150.3l-37.3,65.8"/>
<path d="M407.8,1405.6"/>
<path class="st1" d="M498.9,325.2l-6.3,34.3c0,0-36.2-38.9-20-58.6C472.7,300.9,486.5,293.7,498.9,325.2z"/>
<path class="st1" d="M710.2,279.5l13.9,53.4c0,0,5.4-5.4,0.7-44.8C725,288,721.6,273.2,710.2,279.5z"/>
<path class="st2" d="M511.7,134.6c0,0,4.7,5.1,19.5-18.7c0,0,5.5-8.6,35.7-9l29.7-2.3c0,0,39.9-0.7,41.3-21.7c0,0,5-19.5,4.5-51
	c0,0-1.3-6.3,8.6,7.3c0,0,56.4,67.8,61.3,102.1c0,0-23.6,49.7-35.8,65.1l-36-28.5c0,0-78.6,1.8-102.6,14.3c0,0-7.1,3.8-9.6,7.1
	l-20.5,110.9c0,0-2.9,21.5-6.9,18.7c0,0-1.5,2.1-4.9-17.8l-14.5-71l-7.1-39.9c0,0-8.6-50,2.5-54.9C477,145,479.3,138.1,511.7,134.6z
	"/>
<path class="st2" d="M582,213.3c0,0,7.5-4.5,8.1,4.6l0.8,6.3c0,0,0.7,4.9-4.1,6.2l-28.4,5.8c0,0-8.3,2.8-8.9-3.2
	C549.5,232.7,548.6,230.4,582,213.3z"/>
<path class="st2" d="M630.6,214c0,0-0.9-4.2,3.3-3.7c0,0,13.5,0.6,31.5,6.6c0,0,9.1,1.9,6.4,9c0,0-7.2,1.3-39.8-1.4L630.6,214z"/>
<ellipse transform="matrix(0.1799 -0.9837 0.9837 0.1799 208.7923 785.5445)" cx="575.5" cy="267.5" rx="11.9" ry="11.9"/>
<ellipse transform="matrix(0.1799 -0.9837 0.9837 0.1799 278.7459 863.851)" cx="657.5" cy="264.7" rx="11.9" ry="11.9"/>
<polygon class="st1" points="621.8,251.4 611.9,253.7 608.3,339.9 642.7,333.6 "/>
<path class="st3" d="M620.9,359.2c0,0-41.2,5.2-83.5,18.4l-1.3,9.6c0,0,3.4,82.7,22.6,92.9l4.7,0.4c0,0,75.4-1,118.7-11.6
	c0,0,20.9-3.5,23.3-10c0,0,6.9-26.1-4.6-77.4c0,0-1.1-5.6-40.5-13.9L620.9,359.2z"/>
<path class="st0" d="M545.8,387.9l6.5-1.5l8.3,0.1c0,0,39.8,2.4,64.5-14.7c0,0,59.6,10.7,67.2,14.6c0,0,6.1,45.6,2.2,60.1l-7.9-1.1
	c0,0-106.7,10.1-129.9,14C556.6,459.4,537.5,412.5,545.8,387.9z"/>
<path class="st4" d="M560.2,418.1c0,0-10.4-14.6,17.3-18.3l13.9,0.1l20,0.9l28.9,1.2l9.7-0.1l7.9-0.5l4.1-0.6c0,0,8.5-2.4,10.3,5.3
	c0,0,3.9,13.4-9,18.8l-9.5,3.6l-7.5,2.4c0,0-9.7,3.1-16.1,4l-5.5,0.8l-6.9,2l-5.7,1.6l-14.2,2.8c0,0-10.8,2.9-19.4-4.4
	C569.4,430.3,563.8,424.5,560.2,418.1z"/>
<path d="M969.1,1097.9l-3.5,50.5c0,0-2.2,15.5,9.6,43.1c0,0,11.4,37.9,20.4,43.2c0,0-140.1,88.5-303.1,104.2
	c0,0-225,39.2-449.8-109.1c0,0,9.4,1.4,3.7-33.5c0,0-6.8-11.5-6.1-45.4c0,0,106.5-87.7,77.6-239.1l-51.7,32.4L237,956l-28.8,13.5
	L127,996.3L73.1,1012l-49.4,12.9l-11.2-34.1c0,0,91.3-19.9,156.2-127.3l48.8-88c0,0,46.4-106.2,43.8-126.3l188.6-111.5
	c0,0,9.6-13.1,14.2,3.7l60.2,106.2c0,0,113.7,189.2,184.9,237.9c0,0,77.4-243.7,84.8-350.6c0,0,5.2-26.5-0.4-51.9l23.1,8.5
	c0,0,52.2,17.7,113.8,13.8C930.6,505.3,986.9,854.2,969.1,1097.9z"/>
<ellipse transform="matrix(0.1799 -0.9837 0.9837 0.1799 -391.0829 1518.5679)" class="st5" cx="715.2" cy="993.8" rx="14.8" ry="14.8"/>
<ellipse transform="matrix(0.1799 -0.9837 0.9837 0.1799 -589.0276 1630.3373)" class="st5" cx="683.3" cy="1168.4" rx="14.8" ry="14.8"/>
<path class="st6" d="M703.3,523.6c0,0,13.4,2.8,18.5,26.6c0,0,0.2,9,6.1,5.9c0,0,14.8-10.2,28.5-7.2c0,0,15,3.8-9.6,52.3l-19.1,38.4
	c0,0-16.9,31.9-26.7,44.2l-8,10.1c0,0-4.6,5.9-7.5,5.6c0,0-3.2,1.2-20.5-8.1l-26.3-15l-14.3-9.8l-19.2-12.9L583.1,636
	c0,0-20.1-13.6-18.6-32.4c0,0-4.6-25.9,11.5-34.9c0,0,18.6-9.5,31.2-6.2l1.5-14c0,0,2.3-21.6,25.3-20.9c0,0,18.6,1.3,39.2,24.3
	C673.2,552.2,690,521.4,703.3,523.6z"/>
<path class="st6" d="M578.2,437.8c0,0,7.9-26.8,33.8,1.6l-14.2,2.8C597.7,442.2,589.8,444.5,578.2,437.8z"/>
<path class="st6" d="M549.5,687.7l96.3,97l45.3-71.1l47,36.1l34.8-93.3c0,0-42.2,173.4-63.6,229.1
	C709.4,885.6,634.8,833.9,549.5,687.7z"/>
<path class="st5" d="M464.2,541.5L567.8,619c0,0,40.3,51,117.8,80.6c0,0,23.2-16.5,69.1-115.3c0,0,13.5-27.6,1.8-35.5l37.3-65.9
	c0,0,8,7.8-0.7,63.6c0,0-10.9,72.8-20.1,109.9l-34.8,93.3l-47-36.1l-45.3,71.1l-96.3-97C549.5,687.7,508.6,622.7,464.2,541.5z"/>
<path d="M930.6,505.3c0,0,75.4,255.6,277.3,313.8l-3.1,19.2c0,0-116.9,21.3-241.5-53.6"/>
</svg>
