<?xml version="1.0" encoding="utf-8"?>
<!-- Generator: Adobe Illustrator 21.1.0, SVG Export Plug-In . SVG Version: 6.00 Build 0)  -->
<svg version="1.1" id="Layer_1" xmlns="http://www.w3.org/2000/svg" xmlns:xlink="http://www.w3.org/1999/xlink" x="0px" y="0px"
	 viewBox="0 0 595.3 841.9" style="enable-background:new 0 0 595.3 841.9;" xml:space="preserve">
<style type="text/css">
	.st0{fill:#020202;}
	.st1{fill:#FFFFFF;}
	.st2{fill:#F9F7F7;}
</style>
<image style="overflow:visible;" width="227" height="357" xlink:href="ghost3.png"  transform="matrix(1 0 0 1 184 242.89)">
</image>
<ellipse class="st0" cx="298.1" cy="353.9" rx="107.5" ry="111"/>
<path class="st1" d="M326.9,335.4c0,0-0.9-16.8,18.9-18.9c0,0,17.5-0.1,18.9,18.9H326.9z"/>
<path class="st1" d="M230.4,335.4c0,0-0.9-16.8,18.9-18.9c0,0,17.5-0.1,18.9,18.9H230.4z"/>
<circle class="st1" cx="297.2" cy="337.5" r="19"/>
<path class="st1" d="M253.9,359.3c0,0,8.5-4,19.1,5.6c0,0,9.6,11.8,24.5,11.3c0,0,11.9,1.5,24.5-11.3c0,0,13.2-11.8,26.4-1.9
	c0,0,14.8,11.4,1.9,28.2c0,0-19.6,23.9-52.8,23.6c0,0-28.7,1.9-52.8-23.5C244.8,391.3,228.9,370.5,253.9,359.3z"/>
<path d="M254.3,380.3c0,0-1.4-2,1.1-4.8c0,0,2.3-2.1,5.2,0c0,0,14.4,17,36.9,17v8.2c0,0-10.7,0.4-23.8-5.4
	C273.7,395.4,260.8,388.9,254.3,380.3z"/>
<path d="M340.8,380.3c0,0,1.4-2-1.1-4.8c0,0-2.3-2.1-5.2,0c0,0-14.4,17-36.9,17v8.2c0,0,10.7,0.4,23.8-5.4
	C321.4,395.4,334.3,388.9,340.8,380.3z"/>
<path class="st2" d="M229.3,450.9c0,0,3.3,7.7,13.1,9.1c0,0-5.4,18.7,18.4,18.8c0,0,2.4,18.6,23,13.2c0,0,13.6,17.5,28.6,0
	c0,0,18.2,6.7,23-13.2c0,0,21.1,1.3,18.4-18.8c0,0,8.7,0,13-9.1H229.3z"/>
<path class="st0" d="M245.7,450.9c0,0,24.1,17,48.9,14c0,0,24.6,2.8,55.8-14l2.1-10l-111.6-1.7L245.7,450.9z"/>
<polygon class="st2" points="350.5,450.9 361.8,443.3 366.8,450.9 350.5,457 "/>
<polyline class="st2" points="245.7,450.9 237.5,445.7 219,445.7 229.3,450.9 "/>
<path class="st0" d="M315.8,128.9c0,7.5-15.6,18.1-18.1,18.1c-10,0-18.1-8.1-18.1-18.1s8.1-18.1,18.1-18.1
	C307.7,110.8,315.8,118.9,315.8,128.9z"/>
<path class="st0" d="M349.1,226.9l-44.7-83.5l-6.7,3.6v92.7c0,0,34.1-4.3,72.4,27c0,0,26.6,22,35,59.3c0,0,40.2,13.5,40.6-23.8
	c0,0,0.9-13.6-17.8-25c0,0,22-4.4,17.8-36.2c0,0-7-21-31.3-19.6c0,0-11.2,1.9-19.2,14.5l-6.1-1.9
	C389.3,234.1,378.5,212.3,349.1,226.9z"/>
<path class="st0" d="M246.3,226.9l44.7-83.5l6.7,3.6v92.7c0,0-34.1-4.3-72.4,27c0,0-26.6,22-35,59.3c0,0-40.2,13.5-40.6-23.8
	c0,0-0.9-13.6,17.8-25c0,0-22-4.4-17.8-36.2c0,0,7-21,31.3-19.6c0,0,11.2,1.9,19.2,14.5l6.1-1.9
	C206.1,234.1,216.8,212.3,246.3,226.9z"/>
<circle class="st0" cx="298.1" cy="128.9" r="18.1"/>
</svg>
